<svg width="134" height="36" viewBox="0 0 134 36" fill="none" xmlns="http://www.w3.org/2000/svg">
<path fill-rule="evenodd" clip-rule="evenodd" d="M10.5449 10.7869C10.5449 11.4479 10.5438 12.1092 10.5456 12.7702C10.5464 12.9779 10.5502 12.9832 10.7425 12.9839C11.4414 12.9863 12.1403 12.9817 12.8393 12.9874C12.9876 12.9888 13.033 12.9382 13.0325 12.7916C13.0281 11.4787 13.0306 10.1657 13.029 8.85314C13.0286 8.65883 13.0233 8.65389 12.818 8.65316C12.1286 8.65096 11.439 8.65078 10.7496 8.65334C10.5506 8.65389 10.5464 8.65938 10.5456 8.86009C10.5438 9.50229 10.5449 10.1445 10.5449 10.7869ZM4.98462 8.57942C5.36775 8.23197 5.75051 7.88379 6.13455 7.53726C7.93052 5.91657 9.72686 4.29606 11.5232 2.67555C11.7969 2.42855 11.7991 2.42617 12.0792 2.67738C12.5225 3.07477 12.9624 3.47583 13.4042 3.87469C13.4668 3.93104 13.5213 3.99819 13.6234 4.0379C13.6816 3.86481 13.6384 3.6888 13.6547 3.51864C13.6686 3.37118 13.5867 3.18492 13.6986 3.0863C13.7943 3.00214 13.9707 3.0616 14.1112 3.0605C14.5082 3.05721 14.9051 3.05867 15.3021 3.05977C15.5718 3.0605 15.5727 3.0616 15.5729 3.34282C15.5735 4.05162 15.5846 4.76079 15.5671 5.46959C15.5608 5.73141 15.6488 5.90431 15.8424 6.07428C16.7164 6.84072 17.5782 7.62106 18.4431 8.39756C18.5111 8.45867 18.57 8.53002 18.6677 8.63285H17.9134C17.7149 8.63285 17.5164 8.62992 17.318 8.6334C17.0992 8.63742 17.0055 8.71134 16.9676 8.92101C16.951 9.01286 16.955 9.1091 16.9552 9.20351C16.9581 10.1483 16.9519 11.0935 16.9713 12.0384C16.9786 12.4024 16.8268 12.6162 16.509 12.7678C15.0789 13.4497 13.6624 14.1596 12.2549 14.8864C11.9394 15.0494 11.661 15.0454 11.3454 14.884C9.93507 14.1613 8.51985 13.4483 7.0876 12.77C6.75699 12.6132 6.61501 12.3757 6.62086 12.0087C6.6366 11.0542 6.63166 10.0993 6.6344 9.14478C6.63459 9.07873 6.6355 9.01213 6.62855 8.94645C6.60421 8.715 6.51877 8.63523 6.2811 8.6334C5.85754 8.63047 5.4338 8.63285 5.01023 8.63285C5.00163 8.61492 4.99304 8.59699 4.98462 8.57942Z" fill="#ABD2D9"/>
<path fill-rule="evenodd" clip-rule="evenodd" d="M61.7163 28.1463C61.5189 28.1456 61.3525 28.1721 61.1994 28.2528C60.9017 28.41 60.7865 28.7417 60.9323 29.0401C61.07 29.3213 61.2547 29.5707 61.4881 29.7805C61.6577 29.9328 61.7262 29.9392 61.9104 29.8087C62.1514 29.6386 62.3482 29.4234 62.501 29.1713C62.7015 28.8399 62.6011 28.4698 62.2608 28.2802C62.0844 28.1824 61.8917 28.1441 61.7163 28.1463ZM61.141 34.5092C61.6098 34.5372 62.0237 34.3363 62.42 34.0881C62.6651 33.9347 62.6816 33.8321 62.4988 33.6146C62.0736 33.1085 61.6466 32.6039 61.2164 32.1022C60.9938 31.8424 60.8715 31.821 60.585 32.0129C60.117 32.327 59.8555 32.7733 59.8255 33.3368C59.7992 33.8295 60.0581 34.2096 60.5146 34.402C60.7096 34.4847 60.9131 34.5136 61.141 34.5092ZM63.768 32.4632C63.871 32.2937 63.964 32.1419 64.0558 31.99C64.2282 31.7055 64.4799 31.6012 64.8036 31.6601C65.0457 31.7044 65.2808 31.776 65.5064 31.8724C65.6899 31.9503 65.7371 32.0455 65.6751 32.2319C65.5624 32.5711 65.4696 32.9165 65.2654 33.2221C65.0279 33.578 65.0771 33.8164 65.4175 34.074C65.5979 34.2107 65.7953 34.3246 65.9773 34.4593C66.2424 34.6551 66.2708 34.7826 66.0964 35.0565C65.9652 35.2632 65.8251 35.4674 65.6665 35.6535C65.3794 35.9909 65.0973 36.0074 64.7573 35.7289C64.6845 35.6689 64.6183 35.601 64.5476 35.5381C64.2207 35.2486 63.854 35.1705 63.4455 35.3401C63.2978 35.4016 63.1525 35.4705 63.0102 35.5439C61.7285 36.2009 60.4434 36.1248 59.2088 35.4652C57.7912 34.7076 57.5614 32.882 58.6811 31.6612C58.8478 31.4794 59.0326 31.3178 59.2373 31.1806C59.3939 31.0752 59.5522 30.9715 59.7117 30.8708C60.0127 30.6813 59.9845 30.7246 59.8034 30.4619C59.7123 30.3298 59.6159 30.2008 59.5319 30.0641C59.3165 29.715 59.1616 29.3449 59.1281 28.9285C59.082 28.3575 59.2766 27.8911 59.7117 27.525C60.0842 27.2112 60.5312 27.0661 60.9994 26.9753C61.8171 26.8165 62.6011 26.8917 63.3167 27.3477C63.919 27.7314 64.2511 28.2727 64.1991 29.0075C64.1616 29.5372 63.9085 29.9588 63.5102 30.2943C63.3082 30.4648 63.0848 30.6088 62.8781 30.7735C62.6864 30.9261 62.6803 30.9608 62.7751 31.1817C62.8161 31.2766 62.8651 31.3692 62.9204 31.4569C63.1544 31.8259 63.4623 32.1315 63.768 32.4632Z" fill="#F2B91D"/>
<path fill-rule="evenodd" clip-rule="evenodd" d="M11.8226 15.7368C13.9468 14.6712 16.0537 13.6142 18.1164 12.5796C18.1691 12.5241 18.1654 12.5091 18.1411 12.4987C17.715 12.3148 17.5752 11.971 17.6043 11.5343C17.6423 10.9583 17.6286 10.3818 17.6195 9.80547C17.6186 9.74875 17.6136 9.69222 17.6147 9.6355C17.6202 9.32409 17.7399 9.22548 18.041 9.27799C18.3497 9.33159 18.641 9.42692 18.922 9.57183C19.7693 10.008 20.6237 10.4305 21.5272 10.8844C20.4452 11.4335 19.4014 11.9632 18.3156 12.5142C19.3937 13.0587 20.4265 13.5807 21.4802 14.113C21.3752 14.2198 21.2612 14.2656 21.1551 14.3192C19.7816 15.0113 18.4071 15.7013 17.0333 16.3923C16.5358 16.6423 16.035 16.8862 15.5443 17.1485C15.2056 17.3295 14.8906 17.3245 14.5497 17.1471C13.7379 16.7241 12.9166 16.3193 12.0995 15.9066C12.0158 15.8641 11.9244 15.8354 11.8226 15.7368Z" fill="#F2B91D"/>
<path fill-rule="evenodd" clip-rule="evenodd" d="M2.06323 14.1407C3.15827 13.587 4.2008 13.0601 5.28266 12.513C4.19915 11.9647 3.1504 11.4343 2.06854 10.887C3.1537 10.3415 4.1814 9.78469 5.24753 9.30478C5.29876 9.28154 5.3531 9.26453 5.40763 9.25025C5.72855 9.16756 5.8923 9.27093 5.95487 9.59423C5.96036 9.62222 5.96695 9.65003 5.96841 9.67802C6.0072 10.4333 5.9964 11.1895 5.97701 11.9446C5.96933 12.2412 5.88571 12.3145 5.50039 12.5861C7.56495 13.6231 9.62092 14.6557 11.6869 15.6933C11.6348 15.8465 11.4967 15.8809 11.386 15.9354C10.9031 16.1731 10.4163 16.4021 9.93049 16.6339C9.69191 16.7477 9.44692 16.8493 9.21474 16.975C8.73867 17.2322 8.27064 17.177 7.80079 16.9668C6.74912 16.4956 5.7452 15.9293 4.712 15.4218C3.90751 15.0264 3.09698 14.6429 2.28938 14.2541C2.23028 14.226 2.17228 14.1956 2.06323 14.1407Z" fill="#F2B91D"/>
<path fill-rule="evenodd" clip-rule="evenodd" d="M11.5829 22.1265C11.4709 22.074 11.3855 22.0361 11.3021 21.9942C9.45448 21.0726 7.60692 20.1503 5.75935 19.228C5.70885 19.2023 5.66 19.1729 5.6084 19.15C5.39251 19.0551 5.30157 18.8893 5.30541 18.6555C5.31255 18.2213 5.31109 17.7869 5.312 17.3526C5.31273 16.9568 5.31218 16.5609 5.31218 16.1693C5.4119 16.1381 5.471 16.1953 5.53577 16.2272C6.37996 16.6467 7.22891 17.0576 8.06524 17.4922C8.40958 17.6713 8.71293 17.6638 9.05434 17.4847C9.80559 17.0904 10.5702 16.7217 11.3306 16.3454C11.4045 16.3088 11.4737 16.2544 11.5829 16.2524V22.1265Z" fill="#F2B91D"/>
<path fill-rule="evenodd" clip-rule="evenodd" d="M12.0331 16.2702C12.1322 16.2544 12.2016 16.3112 12.2753 16.3476C13.0441 16.7289 13.817 17.1028 14.5779 17.4991C14.9023 17.6678 15.1921 17.6678 15.5154 17.5006C16.3446 17.0714 17.1835 16.6612 18.0189 16.244C18.0938 16.2065 18.1713 16.1745 18.2449 16.1412C18.3274 16.1915 18.2937 16.2647 18.2939 16.3236C18.2978 17.0886 18.2941 17.8535 18.3018 18.6187C18.3045 18.8875 18.1924 19.0536 17.9507 19.1731C16.3955 19.9421 14.8447 20.72 13.2924 21.4954C12.9635 21.6595 12.6363 21.8275 12.3061 21.9889C12.2239 22.029 12.1494 22.0961 12.0331 22.0882V16.2702Z" fill="#F2B91D"/>
<path fill-rule="evenodd" clip-rule="evenodd" d="M12.033 16.2704V22.0885C12.1493 22.0963 12.2238 22.0292 12.306 21.9891C12.6362 21.8277 12.9633 21.6598 13.2923 21.4957C14.8446 20.7203 16.3954 19.9423 17.9506 19.1733C18.1923 19.0538 18.3044 18.8877 18.3017 18.6189C18.294 17.8538 18.2977 17.0888 18.2938 16.3238C18.2936 16.2649 18.3273 16.1917 18.2448 16.1414C18.1712 16.1747 18.0937 16.2067 18.0188 16.2442C17.1834 16.6614 16.3445 17.0716 15.5153 17.5008C15.192 17.6681 14.9022 17.6681 14.5778 17.4994C13.8169 17.1031 13.044 16.7291 12.2752 16.3478C12.2015 16.3114 12.1321 16.2547 12.033 16.2704ZM11.5833 22.1263V16.2523C11.474 16.2543 11.4049 16.3086 11.3309 16.3452C10.5705 16.7218 9.80594 17.0903 9.05469 17.4847C8.71328 17.6637 8.40993 17.6712 8.06559 17.4922C7.22926 17.0577 6.38031 16.6468 5.53612 16.2272C5.47135 16.1954 5.41225 16.1379 5.31254 16.1692C5.31254 16.5608 5.31308 16.9567 5.31235 17.3525C5.31144 17.7868 5.3129 18.2212 5.30577 18.6555C5.30192 18.8892 5.39286 19.0549 5.60875 19.1501C5.66035 19.1729 5.7092 19.2022 5.7597 19.228C7.60727 20.1503 9.45483 21.0727 11.3024 21.9942C11.3858 22.036 11.4713 22.0738 11.5833 22.1263ZM2.06328 14.1407C2.17214 14.1956 2.23033 14.226 2.28942 14.2541C3.09703 14.6429 3.90737 15.0264 4.71186 15.4218C5.74524 15.9295 6.74917 16.4956 7.80084 16.9669C8.27069 17.177 8.73871 17.2324 9.21479 16.9752C9.44697 16.8493 9.69195 16.7478 9.93054 16.634C10.4163 16.4023 10.9032 16.1732 11.3858 15.9354C11.4965 15.8809 11.6348 15.8467 11.6868 15.6935C9.62097 14.6559 7.565 13.6231 5.50026 12.5861C5.88558 12.3145 5.96919 12.2414 5.97688 11.9446C5.99645 11.1895 6.00707 10.4335 5.96846 9.67822C5.967 9.65004 5.96041 9.62223 5.95492 9.59442C5.89235 9.27094 5.72859 9.16775 5.40768 9.25045C5.35315 9.26454 5.29863 9.28174 5.24758 9.30497C4.18127 9.78489 3.15375 10.3416 2.06859 10.8871C3.15045 11.4343 4.1992 11.9649 5.28271 12.5132C4.20066 13.0601 3.15832 13.5871 2.06328 14.1407ZM11.8228 15.7369C11.9243 15.8355 12.0158 15.8642 12.0994 15.9067C12.9167 16.3194 13.7378 16.724 14.5498 17.1472C14.8907 17.3246 15.2056 17.3296 15.5442 17.1486C16.0351 16.8863 16.5359 16.6424 17.0332 16.3924C18.4071 15.7014 19.7817 15.0114 21.155 14.3193C21.2613 14.2657 21.3753 14.2199 21.4801 14.1131C20.4266 13.5808 19.3938 13.0588 18.3158 12.5143C19.4015 11.9633 20.4453 11.4336 21.5271 10.8845C20.6239 10.4306 19.7692 10.0081 18.9221 9.57192C18.6409 9.42701 18.3498 9.33169 18.041 9.27808C17.74 9.22557 17.6203 9.32418 17.6147 9.63559C17.6137 9.69231 17.6187 9.74884 17.6196 9.80556C17.6287 10.3819 17.6425 10.9584 17.6042 11.5344C17.5753 11.9711 17.7151 12.3149 18.1412 12.4988C18.1656 12.5092 18.1692 12.5242 18.1165 12.5797C16.0538 13.6143 13.947 14.6713 11.8228 15.7369ZM4.98466 8.57934C4.99308 8.59708 5.00168 8.61483 5.01028 8.63276C5.43384 8.63276 5.85758 8.63038 6.28115 8.63349C6.51882 8.63532 6.60426 8.71491 6.62859 8.94655C6.63555 9.01205 6.63463 9.07865 6.63445 9.14488C6.6317 10.0992 6.63646 11.0541 6.62091 12.0086C6.61505 12.3757 6.75703 12.6133 7.08765 12.7699C8.51989 13.4482 9.93511 14.1614 11.3452 14.8839C11.6608 15.0455 11.9393 15.0493 12.2549 14.8865C13.6625 14.1595 15.0788 13.4497 16.509 12.7677C16.8268 12.6161 16.9785 12.4024 16.9712 12.0383C16.952 11.0934 16.958 10.1483 16.9552 9.20343C16.9549 9.10902 16.9509 9.01278 16.9675 8.92093C17.0056 8.71144 17.0992 8.63734 17.3179 8.63349C17.5164 8.62984 17.7149 8.63276 17.9134 8.63276H18.6678C18.5701 8.52994 18.511 8.45877 18.4431 8.39766C17.5782 7.62116 16.7165 6.84063 15.8425 6.0742C15.6487 5.90441 15.5607 5.73132 15.5671 5.4695C15.5847 4.76088 15.5735 4.05172 15.573 3.34273C15.5728 3.06152 15.5719 3.06042 15.3022 3.05969C14.9051 3.05859 14.5081 3.05731 14.1111 3.0606C13.9707 3.0617 13.7944 3.00205 13.6987 3.08622C13.5865 3.18484 13.6687 3.37127 13.6548 3.51874C13.6385 3.68872 13.6817 3.86473 13.6235 4.03781C13.5212 3.99829 13.4667 3.93114 13.4043 3.87461C12.9624 3.47575 12.5224 3.07469 12.0793 2.67729C11.7991 2.42608 11.797 2.42846 11.5232 2.67546C9.7269 4.29597 7.93056 5.91648 6.13441 7.53736C5.75055 7.88371 5.36779 8.23189 4.98466 8.57934ZM0 12.2831C0.0322016 5.76828 5.37163 0.571745 11.6462 0.506792C18.1586 0.439463 23.6062 5.81018 23.6032 12.2941C23.6005 18.4528 18.58 24.0954 11.8363 24.1025C5.28784 24.1089 0.0384224 18.8266 0 12.2831Z" fill="#142B35"/>
<path fill-rule="evenodd" clip-rule="evenodd" d="M100.357 13.6241C100.408 13.512 100.388 13.417 100.388 13.3253C100.392 11.1237 100.395 8.92194 100.396 6.72034C100.396 6.37051 100.385 6.02105 100.385 5.67159C100.385 5.28737 100.493 5.17704 100.869 5.17649C101.917 5.17485 102.966 5.17594 104.015 5.17631C104.081 5.17631 104.148 5.17338 104.213 5.18564C104.395 5.22004 104.471 5.30402 104.479 5.5287C104.491 5.89682 104.486 6.26549 104.486 6.63398C104.486 6.76626 104.478 6.89818 104.478 7.03047C104.478 10.7915 104.477 14.5525 104.478 18.3133C104.478 18.9749 104.485 19.6363 104.488 20.2973C104.489 20.3727 104.491 20.4488 104.485 20.5242C104.464 20.8087 104.384 20.8967 104.098 20.8991C103.56 20.9035 103.021 20.8898 102.483 20.8909C102.011 20.8912 101.537 20.8781 101.067 20.9134C100.607 20.9482 100.302 20.7862 100.065 20.3874C98.6105 17.9472 97.1426 15.5152 95.6793 13.0802C95.5836 12.921 95.4976 12.7532 95.3086 12.6456C95.2551 12.7558 95.2795 12.8593 95.2795 12.9567C95.2795 15.3473 95.2819 17.7379 95.2837 20.1287C95.2837 20.2044 95.2808 20.2802 95.2841 20.3557C95.2996 20.6997 95.2648 20.9399 94.7116 20.9145C93.9559 20.8799 93.2006 20.8834 92.445 20.8931C92.19 20.896 91.9354 20.9092 91.6806 20.9127C91.5962 20.9141 91.5117 20.9013 91.4275 20.8912C91.2704 20.8735 91.197 20.7745 91.1851 20.6254C91.1767 20.5222 91.1761 20.4177 91.1761 20.3142C91.178 17.1295 91.1807 13.945 91.1815 10.7607C91.1818 9.07856 91.1776 7.39657 91.1761 5.71459C91.1758 5.23669 91.2389 5.17119 91.7126 5.17668C92.6668 5.18784 93.6213 5.21272 94.5745 5.16881C95.0396 5.1474 95.341 5.34281 95.5684 5.7285C96.2783 6.93112 96.9962 8.12916 97.7142 9.32721C98.5296 10.6868 99.3479 12.0448 100.168 13.4018C100.213 13.4776 100.238 13.5765 100.357 13.6241Z" fill="#142B35"/>
<path fill-rule="evenodd" clip-rule="evenodd" d="M122.273 13.0384C122.273 10.6286 122.273 8.21878 122.273 5.80915C122.273 5.26318 122.368 5.17445 122.918 5.17463C126.339 5.17591 129.76 5.17554 133.181 5.17591C133.765 5.17609 133.86 5.26666 133.833 5.85105C133.801 6.53112 133.793 7.2101 133.834 7.88963C133.837 7.92732 133.837 7.96501 133.838 8.00307C133.847 8.44602 133.736 8.56513 133.3 8.56732C132.931 8.56897 132.563 8.5633 132.194 8.56257C130.541 8.55909 128.887 8.5558 127.234 8.55397C127.12 8.5536 127.006 8.55543 126.895 8.57336C126.723 8.60081 126.652 8.68113 126.631 8.85513C126.623 8.92008 126.625 8.98704 126.629 9.05291C126.656 9.53465 126.654 10.016 126.63 10.4978C126.628 10.5545 126.624 10.6112 126.627 10.6677C126.64 10.9105 126.725 11.0115 126.974 11.0229C127.294 11.0375 127.616 11.028 127.937 11.0273C129.543 11.0243 131.15 11.0209 132.756 11.0179C132.841 11.0178 132.925 11.0183 133.008 11.0437C133.171 11.0933 133.268 11.1961 133.277 11.3674C133.284 11.4896 133.281 11.6129 133.277 11.7355C133.259 12.3781 133.261 13.0203 133.279 13.6627C133.282 13.7573 133.287 13.8522 133.279 13.9461C133.263 14.1411 133.201 14.2057 133.013 14.2599C132.855 14.3056 132.694 14.2902 132.534 14.2901C131.258 14.2882 129.983 14.2862 128.707 14.2806C128.216 14.2784 127.725 14.2657 127.234 14.2577C127.196 14.2573 127.158 14.2557 127.12 14.2573C126.722 14.274 126.621 14.3761 126.63 14.7773C126.647 15.4669 126.659 16.1563 126.624 16.8459C126.606 17.2122 126.708 17.3234 127.078 17.3406C127.332 17.3523 127.588 17.3329 127.842 17.332C129.676 17.3265 131.509 17.3218 133.342 17.3177C133.918 17.3167 134.025 17.4266 133.996 17.9984C133.957 18.7443 133.958 19.4901 133.993 20.2358C133.997 20.3209 133.997 20.4064 133.994 20.4914C133.981 20.7985 133.894 20.8998 133.584 20.9124C133.254 20.926 132.923 20.9145 132.592 20.9128C132.507 20.9121 132.423 20.9027 132.338 20.9027C130.24 20.8987 128.142 20.8923 126.044 20.8934C124.996 20.8941 123.947 20.911 122.899 20.9166C122.355 20.9196 122.273 20.8356 122.273 20.296C122.272 17.8767 122.273 15.4576 122.273 13.0384Z" fill="#142B35"/>
<path fill-rule="evenodd" clip-rule="evenodd" d="M33.9361 9.46857C33.9169 9.46674 33.8975 9.46527 33.8783 9.46363C33.7834 9.81455 33.6878 10.1655 33.5938 10.5168C33.2376 11.8456 32.8808 13.1747 32.5257 14.5041C32.4366 14.8384 32.4717 14.885 32.8206 14.8841C33.5477 14.8825 34.275 14.872 35.0021 14.8905C35.3091 14.8984 35.3757 14.8067 35.3098 14.5132C35.2934 14.4397 35.2701 14.3676 35.2498 14.2951C35.0857 13.7049 34.9185 13.1158 34.758 12.5242C34.4817 11.5066 34.2098 10.4871 33.9361 9.46857ZM26.4128 20.8681C26.6148 20.251 26.8101 19.6521 27.0075 19.0535C28.4578 14.6569 29.9085 10.2604 31.3594 5.86436C31.3832 5.79246 31.4079 5.72147 31.4345 5.65084C31.5591 5.32078 31.792 5.1594 32.1508 5.16764C32.7836 5.18191 33.4169 5.19106 34.0497 5.1927C34.6168 5.19398 35.1836 5.18063 35.7504 5.17624C36.2385 5.17221 36.35 5.25217 36.5055 5.72421C37.0569 7.3987 37.6033 9.07483 38.1573 10.7482C39.2093 13.925 40.2656 17.1004 41.3198 20.2764C41.3348 20.3211 41.3473 20.3668 41.361 20.4118C41.483 20.8163 41.3968 20.9274 40.9683 20.9146C39.8065 20.8807 38.6449 20.8786 37.4832 20.9164C37.0855 20.9296 36.9486 20.8224 36.8464 20.4283C36.6971 19.8532 36.5472 19.2787 36.3979 18.7033C36.3244 18.4195 36.2219 18.3348 35.9145 18.3346C35.0167 18.3337 34.1191 18.3386 33.2211 18.3394C32.7866 18.3397 32.3517 18.3337 31.9171 18.3343C31.555 18.3346 31.4562 18.4181 31.3668 18.7701C31.2182 19.3552 31.0673 19.9394 30.9143 20.5229C30.8351 20.8257 30.75 20.9003 30.4408 20.9003C29.1271 20.9003 27.8136 20.8947 26.5001 20.8899C26.482 20.8895 26.4639 20.8809 26.4128 20.8681Z" fill="#142B35"/>
<path fill-rule="evenodd" clip-rule="evenodd" d="M80.7702 14.8743C80.8498 14.879 80.8959 14.8843 80.9419 14.8843C81.7632 14.8849 82.5841 14.8847 83.4053 14.8845C83.4525 14.8845 83.4999 14.8818 83.5467 14.8794C83.6686 14.8736 83.7119 14.8018 83.6967 14.69C83.6889 14.6346 83.6689 14.5808 83.6541 14.5265C83.2249 12.9548 82.7964 11.3826 82.3637 9.81186C82.3413 9.73063 82.3697 9.58517 82.2424 9.59011C82.1276 9.59468 82.1463 9.7363 82.1234 9.819C81.8559 10.8004 81.5934 11.7829 81.3307 12.7658C81.1459 13.4569 80.9633 14.1487 80.7702 14.8743ZM74.75 20.8623C74.9655 20.2119 75.1827 19.5598 75.3984 18.9072C76.8448 14.5292 78.2907 10.1511 79.737 5.77312C79.7577 5.71036 79.7775 5.64724 79.8018 5.58577C79.911 5.31004 80.1099 5.16751 80.4118 5.17282C80.8087 5.17959 81.2057 5.18526 81.6024 5.18526C82.4341 5.18562 83.2659 5.18142 84.0974 5.18032C84.5944 5.17959 84.6676 5.23283 84.826 5.71091C86.0778 9.4871 87.3291 13.2635 88.581 17.0395C88.9635 18.1938 89.3483 19.3472 89.7316 20.501C89.8613 20.892 89.861 20.892 89.4544 20.892C88.207 20.8923 86.9594 20.8923 85.7115 20.8923C85.3414 20.8923 85.3202 20.8744 85.2236 20.5246C85.058 19.9246 84.8811 19.3274 84.7373 18.7218C84.6628 18.4086 84.5653 18.3347 84.2425 18.3343C82.9005 18.3325 81.5586 18.3323 80.2166 18.3343C79.8858 18.335 79.8073 18.4066 79.7273 18.7233C79.5771 19.3176 79.4233 19.9107 79.2677 20.5035C79.181 20.8341 79.0952 20.902 78.752 20.9017C77.8635 20.9002 76.9754 20.8942 76.0871 20.8931C75.7375 20.8923 75.3876 20.9009 75.0382 20.9009C74.9469 20.9006 74.8504 20.9264 74.75 20.8623Z" fill="#142B35"/>
<path fill-rule="evenodd" clip-rule="evenodd" d="M111.1 12.9665C111.111 13.9353 111.142 14.7846 111.386 15.6091C111.529 16.0948 111.742 16.5425 112.115 16.9004C112.492 17.2625 112.944 17.4526 113.462 17.4815C113.772 17.4987 114.082 17.5 114.393 17.437C114.92 17.3298 115.33 17.0543 115.64 16.6229C115.918 16.2363 116.108 15.8054 116.264 15.3578C116.323 15.1886 116.372 15.0152 116.442 14.8509C116.546 14.6042 116.678 14.5356 116.939 14.6075C117.238 14.6904 117.532 14.7923 117.826 14.8929C118.539 15.1365 119.25 15.384 119.962 15.6305C120.222 15.7205 120.277 15.7935 120.218 16.0452C119.934 17.2444 119.479 18.3643 118.669 19.3143C117.853 20.2715 116.817 20.8409 115.579 21.0559C114.68 21.2121 113.779 21.2676 112.871 21.1604C112.082 21.0671 111.308 20.9006 110.575 20.586C109.468 20.1103 108.642 19.3161 108.042 18.282C107.467 17.2916 107.122 16.2149 106.909 15.0973C106.499 12.9464 106.716 10.8507 107.511 8.81232C108.292 6.80686 109.752 5.58941 111.839 5.12487C113.252 4.80999 114.666 4.81767 116.071 5.20428C117.441 5.58136 118.471 6.39775 119.202 7.60641C119.56 8.19903 119.824 8.83373 120.042 9.48837C120.139 9.77983 120.092 9.86363 119.8 9.93407C118.765 10.1831 117.732 10.4416 116.707 10.7274C116.68 10.7351 116.651 10.7384 116.623 10.7442C116.374 10.7978 116.275 10.7422 116.215 10.4923C116.104 10.0296 115.868 9.63694 115.546 9.29553C115.046 8.76475 114.412 8.56989 113.7 8.60685C112.581 8.66522 111.923 9.33541 111.498 10.2989C111.295 10.7613 111.22 11.2573 111.159 11.7547C111.104 12.1962 111.08 12.6392 111.1 12.9665Z" fill="#142B35"/>
<path fill-rule="evenodd" clip-rule="evenodd" d="M42.8019 13.0829C42.8019 10.6547 42.8022 8.22626 42.8019 5.79797C42.8019 5.25548 42.8851 5.16656 43.4199 5.17644C44.459 5.19565 45.498 5.20114 46.5371 5.17406C46.5466 5.17388 46.5559 5.1737 46.5653 5.17352C47.0576 5.17004 47.1716 5.27982 47.1729 5.7643C47.1742 6.29325 47.1734 6.82238 47.1731 7.3517C47.1716 9.06186 47.172 10.772 47.1679 12.4824C47.1648 13.7862 47.1557 15.0896 47.1506 16.3934C47.1487 16.8872 47.2854 17.0297 47.7692 17.014C48.9405 16.9754 50.1118 16.9981 51.2832 16.9911C51.9351 16.9877 52.587 16.984 53.2389 16.9813C53.3049 16.9809 53.3719 16.9787 53.437 16.9873C53.714 17.0244 53.8201 17.132 53.8256 17.414C53.8322 17.7444 53.8181 18.075 53.8183 18.4056C53.819 19.0672 53.8229 19.7283 53.8256 20.3897C53.8258 20.4557 53.8293 20.5223 53.8233 20.588C53.804 20.801 53.7442 20.8564 53.5285 20.8985C53.3863 20.9261 53.2458 20.9018 53.1051 20.9014C50.9507 20.8993 48.7965 20.8925 46.6423 20.8936C45.5749 20.8943 44.5075 20.9093 43.4401 20.9175C43.3929 20.9179 43.3458 20.9183 43.2984 20.9175C42.8718 20.9124 42.8079 20.8497 42.8077 20.4246C42.8072 17.9775 42.8076 15.5302 42.8076 13.0829H42.8019Z" fill="#142B35"/>
<path fill-rule="evenodd" clip-rule="evenodd" d="M55.7279 13.0585C55.7279 10.8759 55.7281 8.69334 55.7274 6.51077C55.7274 6.22754 55.7116 5.94376 55.7241 5.66108C55.7409 5.28143 55.8578 5.16781 56.2294 5.17513C57.3347 5.19672 58.4396 5.19635 59.5449 5.1755C59.9123 5.16873 60.0442 5.29991 60.0495 5.66401C60.0559 6.07952 60.0484 6.4954 60.0481 6.91109C60.0464 9.7549 60.0449 12.5991 60.0431 15.4431C60.0427 15.7925 60.0307 16.1422 60.04 16.4914C60.0502 16.8643 60.1613 16.9785 60.5324 17.0072C60.7102 17.0211 60.8908 17.0063 61.0701 17.0054C62.1944 17.0004 63.3183 16.9961 64.4427 16.9909C65 16.9884 65.5575 16.9856 66.1149 16.9825C66.1715 16.9823 66.2284 16.9785 66.2846 16.9821C66.5996 17.0045 66.7094 17.1067 66.7041 17.4269C66.6878 18.4473 66.6948 19.4672 66.7015 20.4877C66.7034 20.7944 66.6084 20.8926 66.297 20.9115C66.0427 20.9268 65.7869 20.9208 65.5318 20.9166C63.4629 20.8818 61.3941 20.8919 59.3252 20.8934C58.3238 20.8945 57.3228 20.9107 56.3214 20.9166C55.7874 20.9197 55.7153 20.8465 55.7166 20.3145C55.7213 18.4437 55.7281 16.5732 55.7332 14.7024C55.7349 14.1544 55.7334 13.6065 55.7334 13.0585H55.7279Z" fill="#142B35"/>
<path fill-rule="evenodd" clip-rule="evenodd" d="M73.1067 13.0381C73.1067 15.4482 73.1062 17.8584 73.1073 20.2686C73.1074 20.84 73.0163 20.9198 72.4499 20.9064C71.4394 20.8826 70.4283 20.8625 69.4178 20.9161C68.8938 20.9439 68.7719 20.8272 68.7727 20.3151C68.7771 17.0164 68.7816 13.7179 68.7827 10.4193C68.7833 8.93546 68.7761 7.45162 68.7727 5.96779C68.7725 5.86405 68.7699 5.75976 68.776 5.65602C68.7957 5.31021 68.9262 5.17903 69.2698 5.17537C69.5911 5.17189 69.9123 5.17866 70.2334 5.18708C70.9518 5.20538 71.6697 5.18488 72.3878 5.17683C72.5106 5.17537 72.6343 5.16915 72.7563 5.18013C72.9737 5.1997 73.0752 5.30473 73.0959 5.52428C73.1049 5.61778 73.1012 5.71292 73.1012 5.80751C73.1014 8.21769 73.1014 10.6279 73.1014 13.0381H73.1067Z" fill="#142B35"/>
<path fill-rule="evenodd" clip-rule="evenodd" d="M7.9041 32.7323C8.02522 32.6322 8.04736 32.4867 8.08358 32.3539C8.50879 30.7976 8.9318 29.241 9.35079 27.6832C9.50777 27.0997 9.55882 27.0536 10.1663 27.0683C10.6956 27.0807 11.2245 27.0765 11.7538 27.0633C12.1584 27.0533 12.2616 27.1444 12.268 27.5515C12.2755 28.0521 12.2614 28.553 12.2603 29.0538C12.2564 30.8022 12.2541 32.5508 12.2504 34.2996C12.2499 34.602 12.2533 34.9046 12.2414 35.2065C12.2241 35.6544 12.0788 35.7927 11.6313 35.7999C11.395 35.8041 11.1587 35.8041 10.9226 35.7947C10.6147 35.783 10.524 35.6822 10.5243 35.3728C10.5267 33.5864 10.5294 31.7999 10.532 30.014C10.532 29.9214 10.532 29.8292 10.532 29.7167C10.4471 29.7869 10.4372 29.8709 10.4129 29.9481C9.92347 31.4962 9.53412 33.0715 9.12227 34.641C9.05768 34.887 8.99474 35.1337 8.89832 35.3706C8.78159 35.6571 8.56789 35.7969 8.2627 35.7999C8.01698 35.8019 7.77108 35.8037 7.52554 35.7977C7.24305 35.7909 7.04252 35.6526 6.92835 35.3946C6.81766 35.1434 6.75325 34.8772 6.683 34.6122C6.27188 33.0629 5.87997 31.5077 5.38834 29.9807C5.36273 29.9013 5.33675 29.8221 5.30711 29.7306C5.22935 29.816 5.26576 29.9088 5.26576 29.9904C5.26448 31.7767 5.26631 33.5631 5.26777 35.3496C5.26814 35.6893 5.17885 35.7861 4.83561 35.7955C4.58038 35.8026 4.32496 35.8063 4.07009 35.798C3.71185 35.7865 3.57737 35.6665 3.5265 35.3128C3.50656 35.173 3.50876 35.0298 3.50857 34.8885C3.50601 32.6576 3.50491 30.4269 3.5029 28.1964C3.50272 27.9791 3.49503 27.7615 3.49888 27.5443C3.5062 27.1534 3.60445 27.0536 3.98922 27.0633C4.60343 27.0787 5.21746 27.0787 5.83167 27.0637C6.18387 27.0551 6.30463 27.1418 6.40087 27.4849C6.59462 28.175 6.77686 28.8683 6.96824 29.559C7.22768 30.4952 7.49261 31.4294 7.7515 32.3656C7.78682 32.4939 7.83237 32.6146 7.9041 32.7323Z" fill="#142B35"/>
<path fill-rule="evenodd" clip-rule="evenodd" d="M99.8468 30.7641V30.7524C100.092 30.7524 100.337 30.7588 100.582 30.7509C100.902 30.7405 101.222 30.7145 101.534 30.6393C102.061 30.5118 102.328 30.1433 102.312 29.5824C102.299 29.0878 101.984 28.7369 101.459 28.6496C100.956 28.5664 100.447 28.5528 99.9379 28.542C99.7121 28.5374 99.4865 28.5453 99.2613 28.5786C98.8152 28.6443 98.7082 28.7636 98.6674 29.2128C98.6284 29.636 98.6761 30.0597 98.6436 30.4833C98.6288 30.6763 98.714 30.7573 98.9138 30.7623C99.2247 30.7698 99.5361 30.7641 99.8468 30.7641ZM102.019 31.9591C102.112 32.0838 102.224 32.1389 102.318 32.2154C102.792 32.6002 103.182 33.0601 103.531 33.5565C104.025 34.2595 104.448 35.0094 104.952 35.7063C104.961 35.718 104.953 35.7413 104.953 35.7918H104.746C104.179 35.7918 103.612 35.7841 103.045 35.7953C102.809 35.8002 102.664 35.7067 102.532 35.5162C101.925 34.6389 101.311 33.7655 100.685 32.9011C100.258 32.3103 99.6459 32.1173 98.9427 32.1649C98.7426 32.1784 98.6816 32.247 98.6626 32.4487C98.6566 32.5143 98.6595 32.5809 98.6597 32.647C98.6622 33.5261 98.665 34.4051 98.6677 35.2839C98.6681 35.3408 98.6719 35.3975 98.6677 35.454C98.6509 35.6723 98.5702 35.7788 98.3593 35.7874C98.0103 35.802 97.6589 35.8095 97.3114 35.7839C96.9735 35.7588 96.837 35.5984 96.8039 35.2489C96.7817 35.0142 96.7688 34.7776 96.7684 34.5416C96.7655 32.5284 96.7671 30.5151 96.7664 28.5021C96.7664 28.209 96.7607 27.9161 96.7596 27.6234C96.7592 27.548 96.7596 27.4711 96.7715 27.3976C96.8105 27.157 96.9047 27.0715 97.1491 27.064C97.3283 27.0587 97.5083 27.0684 97.6878 27.0681C98.6895 27.0681 99.6912 27.0637 100.693 27.067C101.279 27.0692 101.865 27.0959 102.438 27.2324C103.924 27.5873 104.674 29.1046 104.061 30.5096C103.844 31.0082 103.466 31.3512 102.992 31.6003C102.69 31.7589 102.363 31.8504 102.019 31.9591Z" fill="#142B35"/>
<path fill-rule="evenodd" clip-rule="evenodd" d="M37.694 30.4057C37.6246 30.4758 37.6039 30.5733 37.6096 30.6784C37.6669 31.7359 37.5972 32.7936 37.6189 33.8509C37.629 34.342 37.6308 34.8329 37.631 35.324C37.6314 35.7113 37.5527 35.7911 37.1703 35.7975C36.9248 35.8017 36.6787 35.8065 36.4335 35.7953C36.0705 35.7781 35.9207 35.633 35.8918 35.2746C35.8738 35.0488 35.8661 34.8216 35.8665 34.5952C35.868 33.3388 35.8773 32.0824 35.8757 30.8256C35.874 29.7961 35.859 28.7669 35.8533 27.7374C35.8508 27.2013 35.9214 27.1195 36.4489 27.0427C37.1315 26.9426 37.6978 27.1468 38.1192 27.7052C38.2267 27.8479 38.3255 27.9987 38.4154 28.1533C39.2649 29.6146 40.2183 31.0101 41.1302 32.4319C41.1556 32.4716 41.1811 32.5131 41.2149 32.5444C41.2696 32.5949 41.3219 32.5826 41.3333 32.5073C41.3443 32.4333 41.3377 32.3565 41.3375 32.2811C41.336 30.7506 41.334 29.2201 41.3333 27.6895C41.3329 27.1468 41.4368 27.0445 41.9815 27.0613C42.217 27.0688 42.4523 27.0569 42.6872 27.102C42.9156 27.1461 43.0316 27.2739 43.0692 27.4955C43.0965 27.6552 43.0932 27.8153 43.0932 27.9758C43.0941 29.6289 43.0932 31.2827 43.0941 32.9361C43.0945 33.6822 43.0983 34.4284 43.1003 35.1749C43.1003 35.2411 43.1011 35.3075 43.096 35.3732C43.0784 35.6087 42.9983 35.7234 42.7683 35.7728C42.0143 35.9333 41.3082 35.8264 40.772 35.1192C40.6461 34.9531 40.5385 34.7762 40.4349 34.5956C39.6215 33.1784 38.6842 31.8402 37.7944 30.4711C37.7752 30.4414 37.7587 30.4046 37.694 30.4057Z" fill="#142B35"/>
<path fill-rule="evenodd" clip-rule="evenodd" d="M51.2659 31.0931H52.7683C53.1346 31.0931 53.2227 31.1717 53.2149 31.5433C53.1995 32.2708 53.1964 32.9981 53.2061 33.7257C53.2083 33.8957 53.216 34.0655 53.216 34.2356C53.2154 34.5015 53.1042 34.7051 52.8757 34.8488C51.7667 35.5468 50.5738 35.9756 49.2495 35.9595C48.4479 35.9498 47.6764 35.774 46.9473 35.4403C45.9997 35.0061 45.3319 34.2957 44.9881 33.3122C44.5814 32.148 44.5309 30.9597 44.9105 29.779C45.3564 28.391 46.286 27.492 47.7064 27.111C48.9013 26.7908 50.075 26.8327 51.2337 27.2759C52.1264 27.6171 52.6808 28.2685 52.9838 29.1558C53.0017 29.2091 53.0145 29.2649 53.0209 29.3205C53.0336 29.4281 53.0052 29.5033 52.8757 29.5117C52.3667 29.5457 51.8578 29.5832 51.3494 29.6226C51.2561 29.6297 51.1825 29.5997 51.1216 29.5342C51.0508 29.4585 50.973 29.3864 50.9159 29.3009C50.4776 28.6463 49.8352 28.4071 49.0854 28.4348C48.3932 28.46 47.7768 28.7014 47.287 29.2127C46.948 29.5664 46.796 30.0145 46.6798 30.4734C46.4685 31.3075 46.5561 32.1177 46.8915 32.9102C47.1754 33.5806 47.6621 34.0148 48.3469 34.2364C49.0418 34.4611 49.7366 34.4729 50.4272 34.217C50.6598 34.131 50.8675 34.0036 51.0557 33.8417C51.2552 33.6699 51.3525 33.4562 51.3395 33.1929C51.3344 33.0888 51.3316 32.9849 51.3267 32.8812C51.3121 32.5928 51.2885 32.5676 50.9882 32.5557C50.6012 32.5407 50.2139 32.5301 49.8268 32.5182C49.7133 32.5147 49.5999 32.5163 49.4866 32.511C49.3055 32.5024 49.2473 32.4631 49.2241 32.2849C49.1851 31.9839 49.2056 31.682 49.2521 31.3821C49.2773 31.2191 49.3827 31.1351 49.5375 31.1123C49.6304 31.0984 49.7258 31.0967 49.82 31.0963C50.3017 31.0949 50.7838 31.0956 51.2659 31.0956V31.0931Z" fill="#142B35"/>
<path fill-rule="evenodd" clip-rule="evenodd" d="M121.315 31.0935C121.806 31.0935 122.297 31.0943 122.789 31.0932C123.188 31.0924 123.271 31.1671 123.26 31.5756C123.241 32.3031 123.243 33.0307 123.251 33.758C123.253 33.928 123.263 34.0982 123.259 34.2679C123.254 34.5113 123.149 34.7029 122.941 34.835C121.801 35.5597 120.571 35.996 119.206 35.9582C118.435 35.9368 117.69 35.7628 116.989 35.4386C115.992 34.9786 115.318 34.2189 114.985 33.1751C114.648 32.117 114.597 31.0388 114.899 29.965C115.318 28.4739 116.269 27.5003 117.782 27.102C118.967 26.79 120.133 26.835 121.282 27.2775C122.174 27.6205 122.727 28.2722 123.03 29.1596C123.048 29.2125 123.06 29.2685 123.066 29.3243C123.079 29.434 123.044 29.5038 122.917 29.5125C122.408 29.5462 121.899 29.5837 121.391 29.623C121.297 29.6302 121.224 29.5965 121.164 29.5319C121.093 29.4562 121.016 29.3835 120.959 29.2979C120.519 28.6438 119.876 28.4109 119.127 28.4341C118.548 28.4519 118.017 28.6382 117.557 29.003C117.324 29.1878 117.133 29.4101 117.008 29.6794C116.522 30.7358 116.472 31.8 116.927 32.8875C117.218 33.5826 117.718 34.0277 118.421 34.2482C119.106 34.463 119.795 34.4731 120.476 34.2156C120.726 34.1214 120.948 33.9838 121.144 33.7997C121.306 33.6479 121.384 33.4635 121.384 33.2455C121.384 33.1036 121.378 32.9621 121.368 32.8205C121.355 32.6134 121.32 32.5715 121.114 32.5605C120.747 32.5408 120.378 32.5318 120.009 32.5205C119.849 32.5152 119.688 32.5058 119.528 32.5144C119.373 32.5223 119.291 32.4451 119.273 32.309C119.231 31.9891 119.245 31.6689 119.306 31.3511C119.333 31.2108 119.429 31.1411 119.559 31.119C119.66 31.1018 119.765 31.0972 119.869 31.0968C120.351 31.0946 120.833 31.0957 121.315 31.0957V31.0935Z" fill="#142B35"/>
<path fill-rule="evenodd" clip-rule="evenodd" d="M20.5721 31.2883C20.5721 31.1473 20.5805 31.0049 20.5708 30.8642C20.4634 29.3169 19.484 28.5874 18.4192 28.4573C17.257 28.3152 16.1768 28.9605 15.8053 30.0705C15.6999 30.3856 15.6385 30.7102 15.6123 31.039C15.553 31.7869 15.656 32.5058 16.024 33.1734C16.4565 33.9581 17.3108 34.5621 18.466 34.3855C19.6329 34.2064 20.1677 33.5221 20.4094 32.6595C20.5351 32.2118 20.5836 31.7533 20.5721 31.2883ZM18.1482 35.9497C17.5508 35.9261 16.9908 35.8741 16.4457 35.6978C15.1862 35.2899 14.3449 34.4584 13.9536 33.2005C13.5849 32.016 13.5988 30.8137 13.9689 29.6323C14.3632 28.3726 15.2102 27.5379 16.4788 27.1599C17.5133 26.8518 18.5615 26.8222 19.6037 27.1221C20.9214 27.5019 21.8221 28.3509 22.2619 29.6442C22.6928 30.9109 22.6654 32.192 22.173 33.44C21.6322 34.81 20.5842 35.5744 19.1589 35.8546C18.8147 35.9217 18.4654 35.9288 18.1482 35.9497Z" fill="#142B35"/>
<path fill-rule="evenodd" clip-rule="evenodd" d="M93.4618 31.4189C93.4473 31.1838 93.435 30.948 93.4177 30.7129C93.3278 29.4899 92.4752 28.6059 91.2713 28.4569C90.1013 28.3122 88.9791 29.0033 88.6452 30.1371C88.4165 30.9132 88.3959 31.6987 88.5925 32.4863C88.9539 33.9321 90.2712 34.7198 91.6945 34.322C92.5131 34.093 93.0179 33.5197 93.2903 32.733C93.4367 32.3087 93.4647 31.8656 93.4618 31.4189ZM86.5558 31.5101C86.5757 30.7978 86.6454 30.1332 86.878 29.4945C87.2838 28.379 88.0358 27.6078 89.1638 27.2228C90.2176 26.8635 91.2967 26.8051 92.3715 27.0843C93.7657 27.447 94.6984 28.3442 95.1423 29.7101C95.5236 30.884 95.5148 32.0758 95.1114 33.246C94.6077 34.7066 93.5542 35.5517 92.0573 35.8468C91.2038 36.0148 90.3472 35.9819 89.5048 35.7479C87.8925 35.2998 86.9773 34.2166 86.6575 32.5985C86.5838 32.2265 86.5695 31.8485 86.5558 31.5101Z" fill="#142B35"/>
<path fill-rule="evenodd" clip-rule="evenodd" d="M74.296 35.9088C73.6981 35.9414 73.1093 35.8913 72.5408 35.6865C71.7435 35.3997 71.1699 34.8718 70.834 34.0938C70.7295 33.8523 70.6395 33.6026 70.5659 33.3499C70.4957 33.1082 70.5661 32.9928 70.8138 32.9353C71.2187 32.8409 71.6344 32.8142 72.0463 32.7644C72.1971 32.7463 72.322 32.8235 72.3908 32.966C72.4314 33.0511 72.4618 33.1408 72.4975 33.2281C73.0356 34.5377 74.6799 34.7972 75.6838 34.0053C75.8759 33.8538 76.0007 33.6555 76.0428 33.413C76.1205 32.9646 75.9032 32.608 75.4414 32.4554C75.1109 32.346 74.7723 32.262 74.4362 32.1702C73.9367 32.034 73.4332 31.9107 72.9371 31.7632C72.3895 31.6002 71.867 31.3737 71.4795 30.9346C70.8336 30.2027 70.6966 29.3629 71.0347 28.4553C71.2058 27.9953 71.5424 27.6623 71.9795 27.4426C73.5365 26.6595 75.085 26.6823 76.6057 27.534C77.2789 27.9106 77.5723 28.542 77.6358 29.2881C77.6556 29.5205 77.6344 29.5261 77.4141 29.5587C77.0123 29.6176 76.6094 29.6615 76.2029 29.6734C75.9694 29.6802 75.7857 29.5869 75.709 29.3693C75.4847 28.7325 74.9596 28.5288 74.3708 28.4381C74.0166 28.383 73.6556 28.3984 73.3098 28.5306C73.1486 28.5921 73.0003 28.671 72.8779 28.7919C72.5802 29.0856 72.5939 29.4572 72.9124 29.727C73.0431 29.8377 73.1977 29.9067 73.3552 29.9729C73.8717 30.1883 74.4223 30.2785 74.9605 30.4135C75.4906 30.5471 76.0193 30.6861 76.513 30.9267C77.1726 31.2478 77.6457 31.7325 77.8283 32.4644C77.9641 33.0089 77.9538 33.5514 77.7897 34.0856C77.6406 34.5712 77.3382 34.9508 76.9305 35.2502C76.3571 35.6726 75.7025 35.8582 75.0035 35.9063C74.7688 35.9224 74.532 35.9088 74.296 35.9088Z" fill="#142B35"/>
<path fill-rule="evenodd" clip-rule="evenodd" d="M124.871 31.4163C124.871 30.1408 124.871 28.8656 124.871 27.5901C124.871 27.1166 124.933 27.0623 125.415 27.0626C127.258 27.0641 129.1 27.0623 130.942 27.0619C131.065 27.0619 131.189 27.057 131.31 27.0676C131.507 27.0851 131.591 27.1609 131.595 27.3492C131.6 27.6516 131.594 27.9542 131.58 28.2559C131.572 28.4281 131.495 28.5042 131.319 28.5388C131.124 28.5774 130.925 28.5842 130.727 28.5836C129.621 28.58 128.516 28.577 127.411 28.5743C127.345 28.5739 127.278 28.5736 127.212 28.5743C126.818 28.5785 126.755 28.6372 126.75 29.0381C126.746 29.4157 126.749 29.7939 126.754 30.1716C126.757 30.4325 126.803 30.474 127.077 30.4775C128.305 30.4943 129.533 30.5097 130.761 30.5254C130.846 30.5265 130.931 30.5247 131.016 30.5293C131.211 30.5397 131.224 30.5518 131.233 30.7415C131.247 31.0154 131.26 31.2887 131.269 31.5624C131.278 31.855 131.218 31.9351 130.928 31.973C130.656 32.0083 130.382 31.9708 130.108 31.9697C129.116 31.9666 128.124 31.9606 127.133 31.9652C126.833 31.9666 126.744 32.0656 126.753 32.3657C126.768 32.895 126.764 33.4232 126.753 33.9523C126.746 34.2751 126.756 34.2796 127.087 34.2829C128.514 34.2979 129.94 34.314 131.367 34.3223C131.831 34.3247 131.743 34.3905 131.751 34.6906C131.759 34.9648 131.773 35.2382 131.777 35.5123C131.78 35.7126 131.738 35.7609 131.541 35.7882C131.448 35.801 131.352 35.7959 131.258 35.7959C129.312 35.7962 127.366 35.7962 125.42 35.7962C125.382 35.7962 125.344 35.7966 125.306 35.7962C124.963 35.7906 124.872 35.7035 124.872 35.3557C124.87 34.0427 124.871 32.7296 124.871 31.4163Z" fill="#142B35"/>
<path fill-rule="evenodd" clip-rule="evenodd" d="M109.996 29.272C109.976 29.2705 109.955 29.2694 109.935 29.2683C109.846 29.5029 109.758 29.7373 109.667 29.9709C109.406 30.6471 109.141 31.3214 108.885 31.9989C108.797 32.232 108.839 32.287 109.088 32.2894C109.484 32.2942 109.88 32.2909 110.276 32.2909C110.484 32.2909 110.691 32.2951 110.898 32.2891C111.102 32.2834 111.147 32.2186 111.089 32.0232C111.071 31.9603 111.041 31.9003 111.017 31.8391C110.929 31.6212 110.84 31.4031 110.753 31.1849C110.5 30.5474 110.248 29.9094 109.996 29.272ZM105.502 35.7957C105.47 35.6693 105.528 35.597 105.559 35.5213C106.647 32.8304 107.738 30.1407 108.83 27.4509C108.862 27.3726 108.895 27.294 108.938 27.2215C108.999 27.1183 109.089 27.0625 109.217 27.0632C109.718 27.0671 110.218 27.0674 110.719 27.0632C110.868 27.0618 110.973 27.1214 111.04 27.2497C111.076 27.3163 111.108 27.3845 111.137 27.4537C112.271 30.1678 113.405 32.8817 114.538 35.5959C114.562 35.6539 114.609 35.7094 114.584 35.7957C114.012 35.7957 113.437 35.7961 112.863 35.7957C112.668 35.7954 112.558 35.7039 112.495 35.5134C112.325 35.0035 112.137 34.4996 111.955 33.9941C111.858 33.725 111.829 33.7003 111.545 33.7059C110.505 33.726 109.467 33.7279 108.428 33.7059C108.16 33.7003 108.125 33.7292 108.037 33.9804C107.858 34.4972 107.677 35.0132 107.505 35.5325C107.446 35.711 107.335 35.7954 107.153 35.7954C106.605 35.7957 106.058 35.7957 105.502 35.7957Z" fill="#142B35"/>
<path fill-rule="evenodd" clip-rule="evenodd" d="M27.3069 33.3323C27.7105 32.1759 28.1151 31.0209 28.5167 29.8653C28.7922 29.0727 29.0859 28.2865 29.3378 27.486C29.445 27.1452 29.5508 27.0711 29.9141 27.0647C30.2259 27.0594 30.5379 27.0526 30.8491 27.0661C31.2201 27.0822 31.3136 27.2116 31.2465 27.5753C31.2051 27.7991 31.1197 28.0095 31.0414 28.2214C30.1738 30.5638 29.3051 32.906 28.4362 35.2485C28.2662 35.7062 28.129 35.799 27.6366 35.7973C27.4002 35.7962 27.1642 35.7959 26.928 35.797C26.3762 35.7994 26.2507 35.7123 26.0478 35.1894C25.611 34.0645 25.1754 32.9389 24.7352 31.815C24.2505 30.5767 23.7613 29.3407 23.2746 28.1032C23.1986 27.9101 23.124 27.7155 23.0872 27.5107C23.0404 27.2502 23.1383 27.1025 23.3994 27.0751C23.8322 27.0301 24.2679 27.0511 24.7017 27.0747C24.8731 27.0841 25.0008 27.1858 25.0649 27.3506C25.1126 27.4732 25.1529 27.5993 25.1984 27.723C25.8663 29.5369 26.5346 31.3504 27.2019 33.1643C27.2246 33.2258 27.2312 33.2948 27.3069 33.3323Z" fill="#142B35"/>
<path fill-rule="evenodd" clip-rule="evenodd" d="M82.4244 27.0617C83.4261 27.0617 84.4275 27.0606 85.4294 27.0621C85.9479 27.0632 86.0475 27.1779 85.9865 27.6845C85.9651 27.8637 85.982 28.0422 85.9933 28.2217C86.0096 28.4759 85.9238 28.5844 85.6735 28.5827C85.0973 28.5776 84.5208 28.6091 83.945 28.573C83.8978 28.5701 83.8512 28.5611 83.804 28.56C83.4777 28.5547 83.3504 28.6619 83.3389 28.9885C83.3292 29.2615 83.3531 29.5359 83.3529 29.8098C83.3524 31.2178 83.348 32.6257 83.3467 34.0336C83.3464 34.4586 83.3539 34.8838 83.3544 35.309C83.355 35.6936 83.2602 35.7896 82.8674 35.7964C82.603 35.8012 82.3377 35.8068 82.0738 35.7933C81.6732 35.7725 81.5198 35.6157 81.4871 35.214C81.4393 34.6293 81.4629 34.0429 81.4576 33.4576C81.445 32.0879 81.4263 30.7181 81.4818 29.3488C81.4854 29.2544 81.4874 29.1594 81.479 29.0654C81.4461 28.6949 81.2748 28.5201 80.9075 28.5558C80.35 28.6102 79.7932 28.5675 79.2364 28.5851C78.8601 28.597 78.7701 28.5086 78.7607 28.128C78.7554 27.9207 78.756 27.7122 78.7686 27.5052C78.7853 27.2251 78.8872 27.1192 79.1651 27.0808C79.2674 27.0667 79.3724 27.0692 79.4763 27.0692C80.459 27.0681 81.4417 27.0685 82.4244 27.0685V27.0617Z" fill="#142B35"/>
<path fill-rule="evenodd" clip-rule="evenodd" d="M34.1485 31.5413C34.1485 32.7875 34.1487 34.0338 34.1481 35.2804C34.1481 35.3464 34.1485 35.4128 34.141 35.4783C34.1183 35.6737 34.0343 35.7802 33.8369 35.7866C33.4607 35.7989 33.0831 35.826 32.7078 35.7524C32.4729 35.7067 32.3501 35.5726 32.3028 35.342C32.2642 35.1545 32.264 34.967 32.264 34.7781C32.2631 33.0597 32.2643 31.3412 32.2629 29.6228C32.2623 28.9994 32.2554 28.3766 32.2537 27.7534C32.2534 27.6308 32.2519 27.5068 32.27 27.386C32.298 27.2001 32.401 27.0854 32.5842 27.0744C32.951 27.0527 33.321 27.0355 33.6851 27.103C33.9747 27.157 34.0722 27.26 34.1154 27.5483C34.1375 27.6965 34.1366 27.8495 34.1366 28.0002C34.1383 29.1807 34.1375 30.361 34.1375 31.5413H34.1485Z" fill="#142B35"/>
<path fill-rule="evenodd" clip-rule="evenodd" d="M10.5449 10.7868C10.5449 10.1444 10.5438 9.50218 10.5456 8.85998C10.5463 8.65927 10.5506 8.65378 10.7496 8.65323C11.439 8.65067 12.1286 8.65085 12.818 8.65305C13.0233 8.65378 13.0286 8.65872 13.029 8.85302C13.0306 10.1656 13.0281 11.4786 13.0325 12.7915C13.033 12.9381 12.9876 12.9887 12.8392 12.9873C12.1403 12.9816 11.4414 12.9862 10.7425 12.9838C10.5502 12.9831 10.5463 12.9778 10.5456 12.7701C10.5438 12.109 10.5449 11.4478 10.5449 10.7868Z" fill="#142B35"/>
</svg>
