<svg width="16" height="16" fill="none" xmlns="http://www.w3.org/2000/svg">
  <g clip-path="url(#a)">
    <path d="M12.324 15.751c-.149 0-.298-.017-.444-.049a15.07 15.07 0 0 1-7.387-3.889 14.538 14.538 0 0 1-4-7.222 2.036 2.036 0 0 1 .6-1.902L2.871.978a.889.889 0 0 1 .685-.24.889.889 0 0 1 .644.386L6.422 4.41a.711.711 0 0 1-.049.844L5.258 6.587A8.418 8.418 0 0 0 7.11 9.204a8.56 8.56 0 0 0 2.698 1.818l1.382-1.098a.729.729 0 0 1 .827-.053l3.355 2.169a.89.89 0 0 1 .183 1.382l-1.734 1.716a2.106 2.106 0 0 1-1.498.613ZM3.484 1.618l-1.777 1.71a1.129 1.129 0 0 0-.334 1.067 13.645 13.645 0 0 0 3.738 6.783 14.178 14.178 0 0 0 6.951 3.657 1.223 1.223 0 0 0 1.111-.328l1.734-1.716-3.24-2.093-1.485 1.182a.443.443 0 0 1-.409.075c-1.232-.454-2.478-1.095-3.4-2.03-.953-.89-1.564-2.065-2.035-3.28a.444.444 0 0 1 .106-.423l1.2-1.435-2.16-3.17Z" fill="#3A98B2"/>
  </g>
  <defs>
    <clipPath id="a">
      <path fill="#fff" d="M0 0h16v16H0z"/>
    </clipPath>
  </defs>
</svg>
