<svg width="23" height="23" fill="none" xmlns="http://www.w3.org/2000/svg">
  <path d="M17.716 22.642a3.01 3.01 0 0 1-.639-.07 21.665 21.665 0 0 1-10.618-5.59A20.898 20.898 0 0 1 .71 6.6a2.926 2.926 0 0 1 .863-2.735l2.555-2.46a1.278 1.278 0 0 1 .984-.344 1.278 1.278 0 0 1 .926.555l3.195 4.722a1.022 1.022 0 0 1-.07 1.214L7.558 9.468a12.1 12.1 0 0 0 2.664 3.763 12.305 12.305 0 0 0 3.878 2.613l1.987-1.578a1.048 1.048 0 0 1 1.189-.076l4.823 3.118a1.276 1.276 0 0 1 .262 1.986L19.87 21.76a3.027 3.027 0 0 1-2.153.882ZM5.01 2.326l-2.556 2.46a1.623 1.623 0 0 0-.479 1.533 19.614 19.614 0 0 0 5.373 9.749 20.38 20.38 0 0 0 9.992 5.258 1.757 1.757 0 0 0 1.598-.473l2.491-2.466-4.657-3.009-2.134 1.7a.64.64 0 0 1-.588.108 12.816 12.816 0 0 1-4.702-3.035 12.452 12.452 0 0 1-3.111-4.6.639.639 0 0 1 .153-.607l1.725-2.063-3.105-4.555Z" fill="#142B35"/>
</svg>
