<svg width="40" height="40" fill="none" xmlns="http://www.w3.org/2000/svg">
  <circle opacity=".3" cx="20" cy="20" r="20" fill="#ABD2D9"/>
  <path d="M30.063 21.473a.91.91 0 0 1-.869.634.908.908 0 0 1-.812-.494l-1.968-4.156a.247.247 0 0 0-.468.106v11.883c0 .607-.493 1.101-1.098 1.101h-.028a1.101 1.101 0 0 1-1.098-1.1v-6.64a.246.246 0 1 0-.492 0v6.64c0 .606-.493 1.1-1.099 1.1h-.027a1.101 1.101 0 0 1-1.099-1.1V17.014a2.449 2.449 0 0 1 2.444-2.448H24.696c1.418 0 2.7.786 3.34 2.046l1.971 4.162c.111.218.13.465.055.698Zm-9.55-4.458v12.431c0 .607-.492 1.101-1.098 1.101h-.027a1.101 1.101 0 0 1-1.099-1.1v-6.64a.246.246 0 1 0-.492 0v6.64c0 .606-.493 1.1-1.099 1.1h-.027a1.101 1.101 0 0 1-1.098-1.1V17.562a.246.246 0 0 0-.469-.106l-1.964 4.15a.91.91 0 0 1-1.23.4.92.92 0 0 1-.395-1.239l1.964-4.149a3.736 3.736 0 0 1 3.344-2.052h5.001a2.942 2.942 0 0 0-1.31 2.448Zm-4.776-5.251a2.311 2.311 0 0 1 2.306-2.311 2.31 2.31 0 0 1 0 4.621 2.31 2.31 0 0 1-2.306-2.31Zm6.157 2.31h-2.269a2.81 2.81 0 0 0 1.134-1.64 2.81 2.81 0 0 0 1.135 1.64Zm1.582-4.621a2.311 2.311 0 0 1 0 4.621 2.31 2.31 0 0 1 0-4.621Zm6.973 11.104-1.971-4.162a4.223 4.223 0 0 0-3.44-2.307 2.805 2.805 0 0 0-1.562-5.128c-1.312 0-2.416.91-2.717 2.133a2.803 2.803 0 0 0-2.716-2.133 2.804 2.804 0 0 0-1.562 5.128 4.226 4.226 0 0 0-3.443 2.313l-1.965 4.15a1.411 1.411 0 0 0 1.252 2.049c.531 0 1.012-.295 1.256-.775l1.5-3.167v10.788c0 .88.713 1.594 1.59 1.594h.027a1.59 1.59 0 0 0 1.345-.744c.282.447.78.744 1.345.744h.027a1.59 1.59 0 0 0 1.344-.744c.282.447.78.744 1.345.744h.027a1.59 1.59 0 0 0 1.345-.744c.282.447.779.744 1.344.744h.028c.877 0 1.59-.715 1.59-1.594V18.658l1.503 3.173a1.4 1.4 0 0 0 1.891.614c.335-.17.583-.462.698-.82.116-.357.086-.739-.081-1.068Z" fill="#3A98B2"/>
</svg>
